<?xml version="1.0" encoding="UTF-8" standalone="no"?>
<svg width="180px" height="36px" viewBox="0 0 180 36" version="1.1" xmlns="http://www.w3.org/2000/svg" xmlns:xlink="http://www.w3.org/1999/xlink" xmlns:sketch="http://www.bohemiancoding.com/sketch/ns">
    <!-- Generator: Sketch 3.3.3 (12072) - http://www.bohemiancoding.com/sketch -->
    <title>final-color</title>
    <desc>Created with Sketch.</desc>
    <defs></defs>
    <g id="Page-1" stroke="none" stroke-width="1" fill="none" fill-rule="evenodd" sketch:type="MSPage">
        <g id="final-color" sketch:type="MSLayerGroup">
            <path d="M26.4555429,9.2449114 L26.4555429,2.24404816 L15.5751931,5.125602 L7.87080872,0.0721490232 L7.87080872,8.81740118 L0.775488414,10.4881872 L0.775488414,25.6970014 L15.1998183,35.1562017 L36.9071558,29.5856883 L36.9071558,14.3449796 L26.4555429,9.2449114" id="Fill-1" fill="#666665" sketch:type="MSShapeGroup"></path>
            <path d="M15.5751931,34.1619491 L25.4177419,31.5551795 L25.4177419,18.1103816 L15.6169014,20.7054975 L15.4850295,20.7410722 L15.4850295,34.1018401 L15.5751931,34.1619491" id="Fill-2" fill="#0055A5" sketch:type="MSShapeGroup"></path>
            <path d="M35.8699682,15.342299 L26.4555429,17.8355975 L26.4555429,31.2797819 L35.8699682,28.7864834 L35.8699682,15.342299" id="Fill-3" fill="#DEDFE1" sketch:type="MSShapeGroup"></path>
            <path d="M15.1998183,20.6380282 L8.90799637,16.5113585 L8.90799637,29.7905498 L15.4850295,34.1018401 L15.4850295,20.7410722 L15.3936393,20.7643798 L15.1998183,20.6380282" id="Fill-4" fill="#00BAF2" sketch:type="MSShapeGroup"></path>
            <path d="M7.87080872,15.8311449 L1.81267606,11.858428 L1.81267606,25.1376193 L7.87080872,29.1103362 L7.87080872,15.8311449" id="Fill-5" fill="#FFFFFF" sketch:type="MSShapeGroup"></path>
            <path d="M15.3936393,6.24620627 L15.1998183,6.11924125 L8.90799637,1.99318492 L8.90799637,15.2711495 L15.4850295,19.5848932 L15.4850295,6.22228532 L15.3936393,6.24620627" id="Fill-6" fill="#FFFFFF" sketch:type="MSShapeGroup"></path>
            <path d="M25.4177419,17.0370059 L25.4177419,3.59220809 L15.6169014,6.1879373 L15.4850295,6.22228532 L15.4850295,19.5848932 L15.5751931,19.6437756 L25.4177419,17.0370059" id="Fill-7" fill="#DEDFE1" sketch:type="MSShapeGroup"></path>
            <path d="M41.4539755,15.3281917 L44.5324171,15.3281917 L50.8052249,25.1186052 L56.9768287,15.3281917 L60.071831,15.3281917 L60.071831,26.878328 L58.5341436,26.878328 L58.5341436,16.7567015 L57.8907315,16.7567015 L51.44005,26.878328 L50.1869605,26.878328 L43.6688096,16.7567015 L42.9916629,16.7567015 L42.9916629,26.878328 L41.4539755,26.878328 L41.4539755,15.3281917" id="Fill-8" fill="#666665" sketch:type="MSShapeGroup"></path>
            <path d="M67.0303726,19.8615175 C66.1882326,19.8615175 65.5527942,19.8921854 65.1228305,19.9547478 C64.6934802,20.016697 64.3518401,20.1295547 64.0972967,20.2933212 C63.7979782,20.4853021 63.5802363,20.7883008 63.4446842,21.2035438 C63.3091322,21.6181736 63.2410495,22.1836892 63.2410495,22.9007042 C63.2410495,23.713403 63.3318264,24.3218537 63.5121536,24.725443 C63.693094,25.1296456 64.0040663,25.4154702 64.4450704,25.5835302 C64.9308496,25.7699909 65.8772603,25.8638346 67.2849159,25.8638346 C68.2006588,25.8638346 68.8747388,25.8288732 69.3071558,25.7620173 C69.7395729,25.6933212 70.0830532,25.5663562 70.3369832,25.3811222 C70.6203544,25.1830077 70.822149,24.8873694 70.9435938,24.4917537 C71.0644253,24.0967515 71.125761,23.5422762 71.125761,22.8246479 C71.125761,21.9776011 71.0294639,21.3568832 70.837483,20.961881 C70.6228078,20.5214902 70.2652204,20.2289187 69.7653339,20.0817129 C69.2648342,19.934507 68.3533848,19.8615175 67.0303726,19.8615175 L67.0303726,19.8615175 Z M66.8279646,18.7476602 C68.0920945,18.7476602 69.0256247,18.7856883 69.6261018,18.8617447 C70.2278055,18.9384144 70.6976374,19.0776465 71.0362108,19.2806679 C71.5446842,19.5848932 71.9114721,20.0179237 72.1371876,20.5791458 C72.3629032,21.140368 72.4763744,21.9027715 72.4763744,22.8669696 C72.4763744,23.9385052 72.340209,24.7530441 72.0697183,25.3111995 C71.8716038,25.7344162 71.6084734,26.0637892 71.2778737,26.3011586 C70.9478873,26.5366879 70.5142435,26.7096547 69.9775557,26.8163789 C69.4580418,26.9237165 68.5950477,26.977692 67.3867333,26.977692 C66.2458882,26.977692 65.3853476,26.9396638 64.8038846,26.8642208 C64.2224216,26.7875511 63.751363,26.6507724 63.3894821,26.4532712 C62.8534075,26.1656065 62.4694457,25.7417765 62.2375965,25.1799409 C62.0063607,24.6193321 61.8910495,23.8342344 61.8910495,22.8246479 C61.8910495,21.6966833 62.0572694,20.8428896 62.3903226,20.26204 C62.7295093,19.6640164 63.1975011,19.2634939 63.7961381,19.0604725 C64.3941617,18.8574512 65.404975,18.7537937 66.8279646,18.7476602 L66.8279646,18.7476602 Z" id="Fill-9" fill="#666665" sketch:type="MSShapeGroup"></path>
            <path d="M74.1134257,18.8464107 L75.3849159,18.8464107 L75.3849159,19.9302135 L75.4701726,19.9302135 C75.6670604,19.5701726 75.9694457,19.2855747 76.3754884,19.0770332 C76.6177647,18.9537483 76.9379373,18.8672649 77.335393,18.8200363 C77.7334621,18.7715811 78.3271922,18.7476602 79.1171967,18.7476602 C79.9065879,18.7476602 80.4947978,18.7918219 80.8818264,18.8789187 C81.2682417,18.9666288 81.5994548,19.1254884 81.8760791,19.3567242 C82.4176738,19.8253294 82.6881645,20.5840527 82.6881645,21.6328941 L82.6881645,22.4633803 L81.3872331,22.4633803 L81.3872331,21.8874375 C81.3872331,21.4409132 81.3571786,21.1035666 81.2982962,20.8747842 C81.2388005,20.6453885 81.133303,20.457701 80.980577,20.3104952 C80.6591776,20.0111767 79.9906179,19.8615175 78.9748978,19.8615175 C77.445184,19.8615175 76.4644253,20.0602453 76.0332349,20.4589278 C75.6008178,20.8569968 75.3849159,21.7616992 75.3849159,23.1742617 L75.3849159,26.878328 L74.1134257,26.878328 L74.1134257,18.8464107" id="Fill-10" fill="#666665" sketch:type="MSShapeGroup"></path>
            <path d="M85.4777147,16.8554521 L86.7492049,16.8554521 L86.7492049,18.8464107 L92.3669468,18.8464107 L92.3669468,19.9302135 L86.7492049,19.9302135 L86.7492049,23.4208314 C86.7602453,24.1820082 86.7798728,24.6463199 86.8080872,24.8156065 C86.8363017,24.9842799 86.9184916,25.1547933 87.0540436,25.3222399 C87.2116765,25.519741 87.4484325,25.6589732 87.764925,25.7417765 C88.0808042,25.8227397 88.5432758,25.8638346 89.1529532,25.8638346 C89.722149,25.8638346 90.1367787,25.8239664 90.3968423,25.7448433 C90.6562926,25.6663335 90.8599273,25.5234212 91.0065198,25.3136529 C91.1028169,25.1676738 91.1653794,24.9940936 91.1966606,24.7904589 C91.2285552,24.5868242 91.2432758,24.2427306 91.2432758,23.7587915 L91.2432758,23.2521581 L92.5049523,23.2521581 L92.5049523,23.7587915 C92.5049523,24.372149 92.4755111,24.8383008 92.4166288,25.1566333 C92.3565198,25.4755793 92.2448887,25.7558837 92.0823489,25.9981599 C91.8449796,26.346547 91.492299,26.5980236 91.0236938,26.7489096 C90.5544752,26.9010223 89.8975693,26.977692 89.0505225,26.977692 C88.1813948,26.977692 87.502408,26.9071558 87.013562,26.7660836 C86.5259428,26.6256247 86.1634484,26.3943889 85.9260791,26.0736029 C85.7512721,25.8374602 85.6328941,25.5645161 85.570945,25.2553839 C85.5083826,24.945025 85.4777147,24.4739664 85.4777147,23.8440482 L85.4777147,19.9302135 L83.5063835,19.9302135 L83.5063835,18.8464107 L85.4777147,18.8464107 L85.4777147,16.8554521" id="Fill-11" fill="#666665" sketch:type="MSShapeGroup"></path>
            <path d="M98.69005,23.2129032 C97.6448887,23.2129032 96.9131531,23.2306906 96.49607,23.2662653 C96.0777601,23.3049069 95.780895,23.3729896 95.6067015,23.4748069 C95.273035,23.6729214 95.1068151,24.0366424 95.1068151,24.5678101 C95.1068151,25.0922308 95.3037029,25.4479782 95.6993185,25.6350522 C96.0213312,25.7871649 97.1057474,25.8638346 98.952567,25.8638346 C100.302567,25.8638346 101.194389,25.7761245 101.629259,25.6013176 C102.06413,25.4265107 102.281259,25.0707633 102.281259,24.5340754 C102.281259,24.0151749 102.038982,23.6643344 101.553203,23.4833939 C101.067424,23.3036801 100.112426,23.2129032 98.69005,23.2129032 L98.69005,23.2129032 Z M95.4374148,21.2605861 L94.1174693,21.2605861 C94.1064289,21.114607 94.101522,20.9986824 94.101522,20.9140391 C94.101522,20.0725125 94.4174012,19.4996365 95.0491595,19.1947978 C95.6815311,18.8905725 96.8665379,18.7378464 98.6041799,18.7378464 C99.9695139,18.7378464 100.951499,18.7997955 101.549523,18.9236938 C102.14816,19.0482054 102.616152,19.2849614 102.954725,19.6351886 C103.23687,19.917333 103.41965,20.2497728 103.50552,20.6337347 C103.58955,21.0176965 103.631872,21.689323 103.631872,22.6486143 L103.631872,26.878328 L102.370809,26.878328 L102.395956,25.9405043 L102.327874,25.9405043 C102.011995,26.379055 101.633553,26.6605861 101.189482,26.7875511 C100.746638,26.9145161 99.9106315,26.977692 98.681463,26.977692 C97.2756474,26.977692 96.2997955,26.9433439 95.753294,26.8758746 C95.2055657,26.8090186 94.7921627,26.667333 94.5100182,26.4532712 C94.2272603,26.2496365 94.0309859,26.0073603 93.9218083,25.7246025 C93.8114039,25.4430713 93.7568151,25.0492958 93.7568151,24.5426624 C93.7568151,23.9219446 93.8396184,23.4447524 94.0058383,23.1116992 C94.1720582,22.7792594 94.4529759,22.531463 94.8473648,22.3676965 C95.2767151,22.1818492 96.2771013,22.0892322 97.8522035,22.0892322 C99.4990686,22.0892322 100.575511,22.1383008 101.083985,22.2370513 C101.591231,22.3358019 101.984393,22.5750114 102.259791,22.9528396 L102.370809,22.9528396 L102.370809,22.0898455 C102.370809,21.3832576 102.243844,20.8747842 101.989914,20.5638119 C101.764811,20.2871876 101.421331,20.0988869 100.961313,20.0001363 C100.501908,19.9013857 99.7499318,19.8517038 98.707224,19.8517038 C97.3363698,19.8517038 96.4500682,19.9320536 96.0464789,20.0933667 C95.6428896,20.255293 95.4417083,20.6073603 95.4417083,21.1507951 C95.4386415,21.1790095 95.4374148,21.215811 95.4374148,21.2605861 L95.4374148,21.2605861 Z" id="Fill-12" fill="#666665" sketch:type="MSShapeGroup"></path>
            <path d="M105.386075,18.8464107 L106.657565,18.8464107 L106.657565,19.9302135 L106.742208,19.9302135 C106.939709,19.5701726 107.240868,19.2855747 107.647524,19.0770332 C107.890413,18.9537483 108.209973,18.8672649 108.608042,18.8200363 C109.005498,18.7715811 109.599228,18.7476602 110.389846,18.7476602 C111.179237,18.7476602 111.766833,18.7918219 112.153862,18.8789187 C112.540277,18.9666288 112.87149,19.1254884 113.148114,19.3567242 C113.689709,19.8253294 113.960813,20.5840527 113.960813,21.6328941 L113.960813,22.4633803 L112.659269,22.4633803 L112.659269,21.8874375 C112.659269,21.4409132 112.630441,21.1035666 112.571558,20.8747842 C112.511449,20.6453885 112.405952,20.457701 112.253226,20.3104952 C111.931826,20.0111767 111.262653,19.8615175 110.247547,19.8615175 C108.717833,19.8615175 107.736461,20.0602453 107.30527,20.4589278 C106.872853,20.8569968 106.657565,21.7616992 106.657565,23.1742617 L106.657565,26.878328 L105.386075,26.878328 L105.386075,18.8464107" id="Fill-13" fill="#666665" sketch:type="MSShapeGroup"></path>
            <path d="M116.116765,23.054657 L119.52826,23.054657 C119.52274,23.6213994 119.638051,23.9863471 119.874807,24.1495002 C120.04348,24.2562244 120.263062,24.3194003 120.530486,24.3384144 C120.799137,24.3592685 121.64373,24.3733757 123.065493,24.3856429 C124.554725,24.3795093 125.448387,24.3696956 125.747706,24.3555884 C126.047024,24.3408678 126.283167,24.2979328 126.458587,24.2249432 C126.718037,24.1169923 126.848069,23.8268741 126.848069,23.3527488 C126.848069,23.0092685 126.756065,22.7798728 126.573285,22.6639482 C126.389278,22.5492503 126.016356,22.4854612 125.452067,22.4738074 C125.01781,22.4738074 124.098387,22.4406861 122.694412,22.37199 C121.256088,22.305134 120.320718,22.2658791 119.885847,22.253612 C119.040027,22.2260109 118.390482,22.1456611 117.935984,22.0131758 C117.482712,21.8806906 117.128192,21.6654021 116.874875,21.3660836 C116.440005,20.8698773 116.222876,20.0412313 116.222876,18.8801454 C116.222876,17.5773739 116.471286,16.6585643 116.967492,16.1231031 C117.345934,15.70602 117.92617,15.4392095 118.711268,15.3238982 C119.494525,15.2079736 121.088028,15.150318 123.49055,15.150318 C125.188323,15.150318 126.380691,15.1987733 127.069491,15.2938437 C128.12876,15.4404362 128.857428,15.7354612 129.251204,16.177692 C129.647433,16.6199228 129.844321,17.3651522 129.844321,18.4139936 C129.844321,18.5096774 129.841254,18.6900045 129.837574,18.954975 L126.426692,18.954975 C126.415039,18.6354157 126.388051,18.4164471 126.346956,18.2980691 C126.303408,18.1803044 126.221218,18.085234 126.097319,18.0116311 C125.94398,17.9226942 125.675943,17.8644253 125.293208,17.8392776 C124.909246,17.8141299 124.09716,17.8012494 122.855725,17.8012494 C121.362199,17.8012494 120.451363,17.8478646 120.123217,17.941095 C119.79691,18.0343253 119.633144,18.2925488 119.633144,18.7151522 C119.633144,19.1211949 119.79691,19.3689914 120.123217,19.4591549 C120.394934,19.5327578 121.637597,19.603294 123.853657,19.6707633 C125.721331,19.7271922 126.968287,19.7934348 127.597592,19.8694911 C128.226284,19.9455475 128.726783,20.0909132 129.099091,20.304975 C129.522308,20.558905 129.821013,20.9072921 129.995207,21.3495229 C130.170627,21.7923671 130.258337,22.4284189 130.258337,23.257065 C130.258337,24.3445479 130.111131,25.1547933 129.81856,25.6841209 C129.597751,26.0736029 129.292299,26.3643344 128.900363,26.5563153 C128.507201,26.7476829 127.955793,26.8771013 127.244911,26.9445706 C126.483121,27.0126533 125.063812,27.046388 122.986983,27.046388 C121.249341,27.046388 119.966197,27.0016129 119.136324,26.910836 C118.307065,26.8206724 117.68328,26.6605861 117.266197,26.4293503 C116.831327,26.1809405 116.531395,25.8540209 116.364562,25.4479782 C116.197728,25.0419355 116.114312,24.4248978 116.114312,23.5962517 L116.116765,23.054657" id="Fill-14" fill="#0254A7" sketch:type="MSShapeGroup"></path>
            <path d="M132.809905,16.7861427 L135.874852,16.7861427 L135.874852,18.6783507 L140.724671,18.6783507 L140.724671,20.8668105 L135.874852,20.8668105 L135.874852,23.2595184 C135.874852,23.9017038 135.920241,24.3028396 136.011018,24.4659927 C136.16313,24.7469105 136.524398,24.8885961 137.093594,24.8885961 C137.686097,24.8885961 138.052885,24.7530441 138.193344,24.4825534 C138.251,24.3770559 138.284734,24.2703317 138.295161,24.1660609 C138.306815,24.0630168 138.312949,23.797433 138.312949,23.3693094 L141.113539,23.3693094 C141.101886,24.1531804 141.05527,24.718696 140.973694,25.0683099 C140.892117,25.416697 140.732644,25.7405498 140.495888,26.0386415 C140.190436,26.4268969 139.76906,26.6986143 139.231145,26.8531804 C138.690777,27.0077465 137.891572,27.0856429 136.831077,27.0856429 C135.848478,27.0856429 135.119809,27.0316674 134.642617,26.9249432 C134.166038,26.818219 133.777783,26.6182644 133.478464,26.3250795 C133.258269,26.1116311 133.101249,25.8779418 133.004339,25.6252385 C132.908655,25.3713085 132.849773,25.0229214 132.826465,24.5770104 C132.815425,24.4144707 132.809905,23.9746933 132.809905,23.2595184 L132.809905,20.8668105 L131.193707,20.8668105 L131.193707,18.6783507 L132.809905,18.6783507 L132.809905,16.7861427" id="Fill-15" fill="#0254A7" sketch:type="MSShapeGroup"></path>
            <path d="M148.099069,20.76806 C147.082122,20.76806 146.397001,20.8477965 146.040641,21.0054294 C145.780577,21.1244207 145.597796,21.3225352 145.489846,21.5991595 C145.383121,21.8763971 145.329146,22.2861199 145.329146,22.8289414 C145.329146,23.3662426 145.374534,23.7502045 145.464698,23.9814403 C145.555475,24.2139028 145.726602,24.3899364 145.981758,24.5089278 C146.37124,24.6886415 147.074148,24.7794184 148.090482,24.7794184 C149.253408,24.7794184 149.99741,24.658587 150.32249,24.4150841 C150.646343,24.1721945 150.809496,23.6177192 150.809496,22.7528851 C150.809496,22.2100636 150.757974,21.8138346 150.657996,21.5654248 C150.555566,21.3164016 150.371558,21.1354612 150.106588,21.0226034 C149.716493,20.8533167 149.047319,20.76806 148.099069,20.76806 L148.099069,20.76806 Z M148.074534,18.4618355 C149.468083,18.4618355 150.510791,18.5170377 151.202658,18.6268287 C151.894525,18.7366197 152.434893,18.9328941 152.824375,19.2150386 C153.230418,19.5082235 153.507656,19.8921854 153.654248,20.3656974 C153.801454,20.8398228 153.875057,21.5905725 153.875057,22.617333 C153.875057,23.3778964 153.852976,23.9507724 153.810654,24.3316674 C153.768946,24.7113358 153.69105,25.054816 153.577578,25.3596547 C153.284393,26.126965 152.688823,26.6145843 151.791481,26.8231259 C151.045638,26.9979328 149.809723,27.0856429 148.082508,27.0856429 C146.552181,27.0856429 145.456724,27.0304407 144.796751,26.9200363 C144.135552,26.8114721 143.607451,26.59189 143.213062,26.2649705 C142.835234,25.9546115 142.581917,25.5485688 142.454952,25.0468423 C142.327374,24.5445025 142.264198,23.6980691 142.264198,22.507542 C142.264198,21.8303953 142.290572,21.3151749 142.345161,20.9624943 C142.39791,20.6104271 142.501567,20.2871876 142.654294,19.9940027 C142.965266,19.3953657 143.489073,18.9923898 144.228782,18.7832349 C144.968492,18.5746933 146.250409,18.4673557 148.074534,18.4618355 L148.074534,18.4618355 Z" id="Fill-16" fill="#0055A5" sketch:type="MSShapeGroup"></path>
            <path d="M155.460586,18.6783507 L158.348274,18.6783507 L158.348274,19.9302135 L158.50836,19.9302135 C158.784984,19.3959791 159.187347,19.0199909 159.714834,18.8004089 C160.242935,18.5814403 161.001045,18.4716493 161.989777,18.4716493 C162.972376,18.4716493 163.74398,18.5495457 164.306429,18.7041118 C164.868264,18.8592912 165.329509,19.1254884 165.690777,19.5033167 C166.069219,19.8866652 166.314562,20.3092685 166.427419,20.7711268 C166.540891,21.232985 166.597319,22.0278964 166.597319,23.1552476 L166.597319,26.878328 L163.531758,26.878328 L163.531758,23.1552476 C163.531758,22.4952749 163.507837,22.0481372 163.460609,21.8138346 C163.41154,21.5801454 163.306043,21.3814175 163.142276,21.2182644 C162.842958,20.9244662 162.156611,20.7778737 161.083235,20.7778737 C160.021513,20.7778737 159.318605,20.9582008 158.973898,21.3194684 C158.787438,21.5163562 158.666606,21.7592458 158.60895,22.0469105 C158.553748,22.3345752 158.525534,22.8534757 158.525534,23.6029986 L158.525534,26.878328 L155.460586,26.878328 L155.460586,18.6783507" id="Fill-17" fill="#0254A7" sketch:type="MSShapeGroup"></path>
            <path d="M176.14423,21.7635393 C176.133803,21.4415266 176.112949,21.2201045 176.081054,21.0980463 C176.049773,20.9766015 175.98905,20.8674239 175.8995,20.7711268 C175.63453,20.5000227 174.926102,20.3638573 173.77483,20.3638573 C172.741322,20.3638573 172.059269,20.4546343 171.726215,20.6355747 C171.393162,20.8165152 171.215289,21.1925034 171.193208,21.7635393 L176.14423,21.7635393 L176.14423,21.7635393 Z M176.103135,24.2574512 L179.157042,24.2574512 C179.073626,25.147433 178.802522,25.7859382 178.34557,26.1741935 C177.951181,26.5176738 177.390572,26.7550432 176.669264,26.8881418 C175.946729,27.0200136 174.862313,27.0856429 173.418469,27.0856429 C172.226715,27.0856429 171.312812,27.0279873 170.674307,26.9120627 C170.037029,26.7967515 169.532235,26.5980236 169.159927,26.3152658 C168.764312,26.017174 168.494434,25.6166515 168.346002,25.1186052 C168.199409,24.6181054 168.127033,23.8501817 168.127033,22.8123807 C168.127033,22.0334166 168.155248,21.4476602 168.211063,21.0557247 C168.267492,20.6637892 168.37483,20.3098819 168.533076,19.9940027 C168.860609,19.3389368 169.452499,18.9132667 170.311199,18.7157656 C171.043548,18.5464789 172.184393,18.4618355 173.730055,18.4618355 C175.095388,18.4618355 176.05836,18.5102908 176.617742,18.6053612 C177.610768,18.7752612 178.292821,19.1463426 178.665743,19.7186052 C179.038051,20.2914811 179.224512,21.2556792 179.224512,22.6093594 C179.224512,22.7393912 179.219605,23.0160154 179.208564,23.4392322 L171.193208,23.4392322 C171.193208,23.8569287 171.220195,24.1568605 171.272944,24.3365743 C171.327533,24.5181281 171.43303,24.667174 171.590663,24.785552 C171.895502,25.011881 172.584303,25.1247388 173.657065,25.1247388 C174.339119,25.1247388 174.850659,25.0983644 175.192912,25.0443889 C175.533939,24.9916402 175.767015,24.9027033 175.8903,24.7794184 C175.992117,24.6788278 176.062653,24.5040209 176.103135,24.2574512 L176.103135,24.2574512 Z" id="Fill-18" fill="#0254A7" sketch:type="MSShapeGroup"></path>
        </g>
    </g>
</svg>